<svg xmlns="http://www.w3.org/2000/svg" width="179" height="168" fill="none"><path fill="#E2E3F6" d="M151.491 67.834a.533.533 0 0 1 1.01 0l.96 2.833c.05.147.161.266.305.324l2.721 1.1c.445.18.445.81 0 .99l-2.721 1.1a.534.534 0 0 0-.305.323l-.96 2.833a.533.533 0 0 1-1.01 0l-.96-2.833a.534.534 0 0 0-.305-.324l-2.721-1.1a.534.534 0 0 1 0-.99l2.721-1.1a.534.534 0 0 0 .305-.323l.96-2.833zM22.465 108.789a.438.438 0 0 1 .831 0l1.064 3.14a.44.44 0 0 0 .25.266l2.98 1.204a.44.44 0 0 1 0 .814l-2.98 1.204a.44.44 0 0 0-.25.266l-1.064 3.14a.438.438 0 0 1-.83 0l-1.064-3.14a.439.439 0 0 0-.251-.266l-2.98-1.204a.44.44 0 0 1 0-.814l2.98-1.204a.439.439 0 0 0 .25-.266l1.064-3.14z"/><circle cx="168.467" cy="62.45" r="2.668" fill="#F3F4FB"/><circle r="2.193" fill="#F3F4FB" transform="scale(-1 1) rotate(60 -110.222 24.64)"/><circle r="2.193" fill="#F3F4FB" transform="scale(-1 1) rotate(60 -50.74 -36.755)"/><circle r="2.193" fill="#F3F4FB" transform="scale(-1 1) rotate(60 -190.262 -78.808)"/><circle cx="161.611" cy="66.451" r="1.334" fill="#F3F4FB"/><circle r="1.096" fill="#F3F4FB" transform="scale(-1 1) rotate(60 -110.27 18.088)"/><path fill="#F3F4FB" d="M98.545 18.105c0-.468.379-.847.847-.847h29.719c.468 0 .847.379.847.847v2.54a.847.847 0 0 1-.847.846h-29.72a.847.847 0 0 1-.846-.847v-2.54zm-.086-6.298c0-.467.379-.846.847-.846h29.805c.467 0 .847.379.847.846v2.54c0 .468-.38.847-.847.847H99.306a.847.847 0 0 1-.847-.847v-2.54z"/><path fill="#F3F4FB" d="M89.727 15.712a6.968 6.968 0 0 1-1.27-.181v8.077a2.59 2.59 0 0 0 2.59 2.589h37.496a.635.635 0 1 0 0-1.27H91.046a1.32 1.32 0 0 1-1.319-1.32v-7.895zm7.22-8.187h23.514a.635.635 0 1 0 0-1.27H96.595c.155.406.274.83.352 1.27zm41.733 6.353a.635.635 0 1 0-1.269 0v9.73a1.32 1.32 0 0 1-1.32 1.319h-2.993a.635.635 0 1 0 0 1.27h2.993a2.59 2.59 0 0 0 2.589-2.59v-9.729z"/><path stroke="#F3F4FB" stroke-width="1.27" d="M90.086 15.106a6.35 6.35 0 1 1 0-12.7 6.35 6.35 0 0 1 0 12.7z"/><path fill="#F3F4FB" fill-rule="evenodd" d="M89.979 6.096A2.287 2.287 0 0 0 87.7 8.392a2.287 2.287 0 0 0 2.278 2.296 2.287 2.287 0 0 0 2.278-2.296 2.287 2.287 0 0 0-2.278-2.296zm-2.813 2.296a2.822 2.822 0 0 1 2.813-2.831 2.822 2.822 0 0 1 2.813 2.831c0 .677-.237 1.3-.631 1.787l1.043 1.039a.268.268 0 1 1-.378.379l-1.04-1.035a2.79 2.79 0 0 1-1.807.661 2.822 2.822 0 0 1-2.813-2.83zm3.721-.793a1.839 1.839 0 0 0-.959-.513.268.268 0 0 1 .101-.527 2.397 2.397 0 0 1 1.809 1.59.269.269 0 0 1-.168.34.266.266 0 0 1-.337-.168 1.86 1.86 0 0 0-.446-.722z" clip-rule="evenodd"/><g opacity=".8"><path fill="#F3F4FB" d="M142.691 43.878c0-.297.241-.538.539-.538h18.894c.298 0 .539.24.539.538v1.615a.538.538 0 0 1-.539.538H143.23a.538.538 0 0 1-.539-.538v-1.615zm-.058-4.003c0-.298.241-.539.538-.539h18.949c.298 0 .539.241.539.539v1.614a.538.538 0 0 1-.539.539h-18.949a.538.538 0 0 1-.538-.538v-1.615z"/><path stroke="#F3F4FB" stroke-linecap="round" stroke-width=".847" d="M165.973 41.19v6.187c0 .686-.556 1.242-1.243 1.242h-1.36m-6.646-11.871h-15.257c-.686 0-1.242.556-1.242 1.242v9.387c0 .686.556 1.242 1.242 1.242h19.508"/></g><path fill="#EFF0FB" d="M42.55 77.653c0-.935.759-1.694 1.694-1.694h59.367c.935 0 1.693.759 1.693 1.694v3.386c0 .936-.758 1.694-1.693 1.694H44.244a1.693 1.693 0 0 1-1.693-1.694v-3.386z"/><path fill="#EFF0FB" d="M29.733 69.156a9.696 9.696 0 0 1-1.27-.272v17.384c0 2.22 1.8 4.021 4.021 4.021h68.709a.635.635 0 1 0 0-1.27H32.484a2.752 2.752 0 0 1-2.751-2.751V69.156zm11.024-11.222h16.762a.635.635 0 1 0 0-1.27H40.46c.126.412.225.836.296 1.27zm78.435 11.474a.635.635 0 1 0-1.27 0v16.86a2.75 2.75 0 0 1-2.751 2.751h-5.656a.635.635 0 0 0 0 1.27h5.656a4.02 4.02 0 0 0 4.021-4.021v-16.86zM42.35 65.913c0-.935.758-1.693 1.693-1.693h59.57c.935 0 1.694.758 1.694 1.693V69.3c0 .935-.759 1.693-1.694 1.693h-59.57A1.693 1.693 0 0 1 42.35 69.3v-3.387z"/><path stroke="#EFF0FB" stroke-width="1.27" d="M31.116 68.598a9.12 9.12 0 1 1 0-18.24 9.12 9.12 0 0 1 0 18.24z"/><path fill="#EFF0FB" fill-rule="evenodd" d="M30.757 55.775c-1.844 0-3.344 1.507-3.344 3.371 0 1.865 1.5 3.372 3.344 3.372 1.844 0 3.344-1.507 3.344-3.372 0-1.864-1.5-3.371-3.344-3.371zm-4.13 3.371c0-2.293 1.846-4.157 4.13-4.157s4.13 1.864 4.13 4.157c0 .995-.347 1.908-.927 2.624l1.531 1.525a.393.393 0 0 1-.554.557l-1.526-1.52a4.096 4.096 0 0 1-2.654.971c-2.284 0-4.13-1.863-4.13-4.157zm5.463-1.164a2.7 2.7 0 0 0-1.407-.753.394.394 0 0 1 .148-.774 3.52 3.52 0 0 1 2.656 2.336.39.39 0 1 1-.742.252 2.732 2.732 0 0 0-.655-1.06z" clip-rule="evenodd"/><g clip-path="url(#a)"><path fill="#F3F4FB" d="M95.287 155.425c28.22 0 51.097-3.969 51.097-8.864 0-4.896-22.877-8.864-51.097-8.864-28.22 0-51.098 3.968-51.098 8.864 0 4.895 22.877 8.864 51.098 8.864z"/><path fill="#EBECFA" d="M95.287 153.739c18.127 0 32.821-3.591 32.821-8.021 0-4.43-14.694-8.021-32.82-8.021-18.127 0-32.821 3.591-32.821 8.021 0 4.43 14.694 8.021 32.82 8.021z"/><path fill="#E0E1F1" d="M114.1 150.776c-.105.744-.597.31-3.593.993-2.153.492-7.574-.762-7.47-1.501.104-.739 2.683-2.044 5.73-1.615 3.047.429 5.427 1.379 5.333 2.123zm-31.303-.498c-.106.744-.599.31-3.592.993-2.156.492-7.577-.762-7.473-1.503.104-.742 2.704-2.032 5.746-1.613 3.042.419 5.424 1.379 5.32 2.123z"/><path fill="#4C54D2" d="M61.765 113.544c2.328-4.524-6.833-8.523-4.939-9.181 1.498-.508 6.147 2.351 16.227 3.367 6.107.614 10.335.16 11.64 0a40.3 40.3 0 0 0 1.307-.18 38.646 38.646 0 0 1 11.495 0c.416.066.85.124 1.303.18 1.305.16 5.532.614 11.641 0 10.076-1.016 14.727-3.885 16.225-3.367 1.895.658-7.267 4.657-4.938 9.181.995 1.938 3.047 1.938 7.056 5.051 3.151 2.45 7.363 5.725 6.701 9.336-.292 1.574-1.27 1.859-11.96 9.565-6.512 4.695-7.416 5.5-10.108 5.896-8.425 1.244-19.12-3.758-21.669-5-2.551 1.242-31.025 8.169-31.827 5.002-.434-1.701 2.564-1.295 2.65-2.765.08-1.3-2.11-2.646-2.894-3.372a25.327 25.327 0 0 1-4.418-5.274c-1.557-2.539-2.565-5.451-2.62-8.427-.036-1.963.482-3.725 2.071-4.961 4.01-3.113 6.069-3.113 7.057-5.051z"/><path fill="#FF8500" d="M151.471 120.938c-.551 1.481-4.137 8.499-12.259 10.157-3.232.657-6.221 0-9.042-.351-2.285-.276-4.479-.335-6.602.716-4.413 2.194-3.907 8.633-5.626 9.852a1.098 1.098 0 0 1-.785.198 2.114 2.114 0 0 1-1.099-.475c-1.587-1.269-2.346-4.712-1.795-7.333.99-4.715 8.379-7.274 13.711-7.363a14.615 14.615 0 0 1 3.918.434c2.254.549 3.76 1.351 6.779.734 4.614-.942 7.562-4.144 8.691-5.373 3.413-3.704 4.431-7.757 5.658-12.642a49.414 49.414 0 0 0 1.421-9.484c.15 1.991 1.194 9.712-2.97 20.93z"/><path fill="#8E3501" d="M133.512 127.19c.87.85-1.095 1.015-2.809 1.866-.568.284-1.795.825-.533 1.676-2.285-.277-4.479-.335-6.602.716-4.413 2.194-3.907 8.633-5.626 9.852a16.387 16.387 0 0 1-1.884-.277c-1.587-1.27-2.346-4.713-1.795-7.333.99-4.715 8.379-7.275 13.711-7.364 1.648-.038 3.166.135 5.538.864z" opacity=".24"/><path fill="#D80" d="M106.517 133.235c.7 2.217 2.252 5.995 5.949 9.903.421.449.878.904 1.363 1.353.201.188.409.379.622.564 1.077.3 2.24.383 3.278-.102 1.039-.485 1.905-1.5 2.565-2.851 1.523-3.093 1.937-7.907.731-11.909-.673-2.234-1.853-4.214-3.638-5.497-2.974-2.135-7.887-2.539-10.398-.586a4.024 4.024 0 0 0-.734.718 4.195 4.195 0 0 0-.825 1.93c-.335 1.978.419 4.367 1.087 6.477z"/><path fill="#D80" d="M116.715 147.537c2.991-1.056 5.06-2.919 4.621-4.161-.439-1.242-3.219-1.391-6.21-.335-2.991 1.057-5.059 2.92-4.621 4.162.439 1.241 3.219 1.391 6.21.334z"/><path fill="#FFAD00" d="M113.083 135.437c0 1.041-.071 5.195-2.285 8.785-3.28 5.332-10.428 7.996-18.144 7.303-7.717.693-14.867-1.978-18.145-7.303a15.404 15.404 0 0 1-1.935-5.185 20.3 20.3 0 0 1-.347-3.6v-.762c.114-2.674 1.035-5.233 2.73-9.849.878-2.395 1.832-4.969 3.237-7.95a71.613 71.613 0 0 1 2.125-4.147c1.485-2.681 2.656-4.791 3.697-6.284 1.962-3.369 5.096-5.548 8.633-5.548 3.537 0 6.665 2.179 8.633 5.548 1.041 1.493 2.211 3.603 3.699 6.284 2.684 4.845 4.101 8.656 5.363 12.097.084.231.167.457.254.678 1.693 4.611 2.534 7.097 2.485 9.933z"/><path fill="#FFD360" d="M106.424 125.143c-.982-2.676-2.084-5.642-4.172-9.41-1.157-2.084-2.066-3.727-2.876-4.89-1.524-2.618-3.964-4.317-6.711-4.317-2.748 0-5.185 1.696-6.711 4.317-.81 1.163-1.722 2.793-2.877 4.89-2.087 3.768-3.19 6.734-4.172 9.41-1.442 3.921-2.163 5.952-2.133 8.255 0 .81.056 4.042 1.778 6.835 2.552 4.141 8.112 6.221 14.115 5.683 6.002.538 11.563-1.542 14.112-5.683 1.722-2.793 1.765-6.025 1.778-6.835.03-2.303-.689-4.334-2.131-8.255z"/><path fill="#8E3501" d="M113.096 135.437c-.013 1.041-.072 5.195-2.286 8.785-3.28 5.332-10.428 7.996-18.144 7.303-7.717.693-14.867-1.978-18.145-7.303a15.404 15.404 0 0 1-1.934-5.185c-.684-2.745-.404-6.985.921-9.702 5.05-10.349 21.075-15.742 14.341.325-5.035 11.99 9.037 14.961 15.255 12.104 7.711-3.542-16.052-22.837 5.995-18.695.495.094 1.033 2.618 1.503 2.432 1.694 4.614 2.534 7.1 2.494 9.936z" opacity=".24"/><path fill="#8E3501" d="M76.31 144.644a9.852 9.852 0 0 1-1.057.962c-.856-2.539-.916-5.256-.995-10.172-.04-2.539-.076-5.296.162-8.582.785 1.105 1.778 2.387 3.116 4.118 1.833 2.377.683 11.673-1.227 13.674z" opacity=".24"/><path fill="#D80" d="M81.413 132.438c-.474 2.285-1.645 6.188-4.936 10.441a29.304 29.304 0 0 1-1.785 2.102c-1.04.407-2.191.605-3.273.226-1.081-.378-2.03-1.307-2.833-2.584-1.816-2.928-2.712-7.676-1.91-11.782.447-2.285 1.427-4.38 3.075-5.84 2.748-2.42 7.597-3.301 10.289-1.615.292.18.56.396.8.643a4.207 4.207 0 0 1 1.015 1.84c.528 1.95.015 4.403-.442 6.569z"/><path fill="#D80" d="M79.799 146.966c.313-1.279-1.93-2.927-5.012-3.682-3.08-.754-5.833-.329-6.146.95-.313 1.279 1.93 2.927 5.012 3.682 3.08.754 5.832.329 6.146-.95z"/><path fill="#8E3501" d="M144.764 102.23c-.525 1.067-6.071-1.929-8.259.229-1.6 1.574.254 4.255-.386 8.983a16.38 16.38 0 0 1-2.166 6.125c-.549.942-1.117 1.757-1.61 2.462-4.57 6.546-12.188 10.352-13.351 9.141-.794-.827 1.524-3.973.988-4.334-.594-.401-2.933 3.9-7.957 6.693-3.192 1.778-4.393 1.232-7.603 2.859-3.344 1.701-5.84 4.223-7.716 6.896-2.285-2.331-4.707-4.453-8.29-5.586-3.428-1.086-4.525-.355-7.963-1.587-5.408-1.939-8.417-5.807-8.937-5.311-.465.439 2.328 3.168 1.678 4.113-.945 1.374-9.088-1.143-14.66-6.856-1.636-1.678-3.954-4.062-5.12-7.871-1.394-4.57 0-7.506-1.838-8.8-2.511-1.778-7.496 2.082-8.186 1.114-.668-.929 4.255-4.05 6.794-9.953 2.27-5.284 2.258-11.934-.182-13.203-2.032-1.054-4.637 2.209-5.708 1.36-1.778-1.414 1.81-13.376 11.126-19.934 4.9-3.42 9.727-4.2 9.573-6.127-.209-2.519-8.735-3.115-8.664-4.662.056-1.282 6.066-2.343 12.102-2.552a71.574 71.574 0 0 1 21.927 2.684 76.174 76.174 0 0 1 4.459-1.927 67.88 67.88 0 0 1 16.301-4.245c5.987-.762 12.086-.709 12.353.558.32 1.524-7.996 3.486-7.79 6.005.157 1.917 5.048 1.912 10.441 4.517 10.255 4.96 15.742 16.177 14.219 17.865-.922 1.016-4.017-1.777-5.853-.418-2.201 1.642-1.135 8.2 1.96 13.045 3.459 5.411 8.826 7.691 8.318 8.717z"/><path fill="#D80" d="M106.229 70.676c1.716-2.176 4.227-3.684 7.363-4.283 1.691-.325 3.369-.358 4.337.404.967.761 1.323 2.402 1.401 4.123.145 3.182-.736 5.975-2.452 8.15l-10.649-8.394zm-31.841 2.603c-2.047-1.869-4.771-2.95-7.953-3.047-1.721-.046-3.385.196-4.215 1.102-.83.906-.916 2.587-.713 4.299.373 3.161 1.696 5.774 3.745 7.642l9.136-9.996z"/><path fill="#993719" d="M124.542 97.261c-.029.13-.04.263-.033.396.038.625.543 1.158.543 1.778 0 .68-.574 1.201-.894 1.8-.647 1.221.056 2.897.043 4.227a13.105 13.105 0 0 1-.807 4.337c-1.049 2.885-2.963 5.378-5.043 7.597-.708.762-1.566 1.524-2.602 1.539-1.158 0-2.075-.907-2.966-1.643a.56.56 0 0 0-.756-.111.559.559 0 0 0-.184.208c-1.193 1.251-2.31 2.602-3.717 3.61-3.809 2.735-8.887 3.192-12.883 5.741-3.616-2.189-8.235-1.749-12.2-3.212-1.979-.729-3.779-1.927-5.815-2.475-1.618-.437-3.322-.447-4.947-.851-3.283-.82-5.933-3.321-7.378-6.328-1.445-3.006-.572-7.226-2.877-9.709a5.252 5.252 0 0 1-.762-.876c-.376-.66-.254-1.485-.035-2.214.868-3.047 2.836-5.761 3.3-8.9.082-.546.092-1.17-.289-1.569a2.013 2.013 0 0 0-.98-.465l-3.19-.848a2.237 2.237 0 0 1-.875-.376c-.45-.375-.53-1.015-.508-1.614.048-2.07.876-4.063 1.99-5.8a18.282 18.282 0 0 1 6.318-6c1.338-.761 4.74-1.663 5.482-3.067.477-.909-.45-2.168.084-3.021.533-.854 2.722-1.222 3.654-1.445a23.922 23.922 0 0 1 8.729-.333c3.159.422 6.419 1.32 9.466.386 1.016-.312 1.985-.822 3.047-.888.934-.059 1.853.238 2.793.34 2.285.254 4.522-.68 6.774-1.173.273-.087.565-.087.838 0 .508.223.323.96.254 1.376a3.118 3.118 0 0 0 1.838 3.222c.62.254 1.303.302 1.968.399 2.885.429 5.492 1.904 8.016 3.338.825.468 1.678.965 2.207 1.755.408.61.581 1.343.749 2.06.426 1.83.85 3.75.358 5.563-.445 1.637-1.524 3.01-1.483 4.768a7.25 7.25 0 0 0 1.818 4.715c.609.675 1.406 1.364 1.368 2.273-.01.515-.312.99-.413 1.49z"/><path fill="#D80" d="m105.285 115.776.094.376-.49.724-.023.033c-2.59 3.844-6.601 5.637-10.86 5.741l-.632.015c-4.232.102-7.546-5.906-11.025-5.149-.035 0-.043-.059-.066-.089l-.525-.701a7.665 7.665 0 0 1-.178-.254 21.952 21.952 0 0 0 3.725-2.349c2.498-1.906 6.569-5.608 8.036-7.046 1.524 1.364 5.782 4.865 8.379 6.648a22.485 22.485 0 0 0 3.565 2.051z"/><path fill="#FFAD00" d="M115.62 90.25a6.822 6.822 0 0 1-1.777 4.19c-.071.081-.145.165-.216.254a7.53 7.53 0 0 0-1.27 2.168c-.604 1.628-.355 2.793-.254 4.695.021.406.044.8.066 1.191a24.6 24.6 0 0 1-.959 8.346c-.907 3.144-2.539 4.002-4.109 4.824-1.178.615-1.5.539-3.956.112-.914-.16-1.886-.68-3.026-1.269-2.057-1.08-5.472-3.258-6.703-4.106-1.077 1.036-4.063 3.484-5.924 4.883-1.016.774-1.897 1.391-2.793 1.597-1.577.36-.401-.488-1.765-.744-1.427-.269-2.712-.437-4.644-3.555-1.137-1.836-4.268-3.555-4.608-6.922-.041-.388-.084-.784-.13-1.191-.213-1.884-.16-3.079-1.016-4.588a7.533 7.533 0 0 0-1.856-2.148 6.81 6.81 0 0 1-2.437-3.844 12.438 12.438 0 0 1-.282-2.658c0-2.136.589-4.294 3.59-9.322a86.263 86.263 0 0 1 4.698-7.04 4.146 4.146 0 0 1 5.078-1.285l.726.34 6.602 3.103a4.117 4.117 0 0 0 4.075-.333l6.013-4.133.662-.455a4.145 4.145 0 0 1 5.231.442 87.712 87.712 0 0 1 5.776 6.185c3.781 4.474 4.7 6.51 5.056 8.613.146.875.197 1.764.152 2.65z"/><path fill="#FFD152" d="M94.275 104.627c.612-.452 1.153-.429 3.13-.579 5.64-.419 5.147-.889 6.602-.645 3.938.665 6.094 3.898 6.643 4.885.45.725.679 1.565.66 2.418a3.797 3.797 0 0 1-.546 1.818c-.282.457-.269.84-.881 1.475-.841.863-1.369 1.099-1.623 1.353-1.417 1.524-6.243.434-9.684-1.089-2.364-1.046-3.979-1.76-4.91-3.522-1.054-1.991-.99-4.931.609-6.114z"/><path fill="#FFD152" d="M91.889 104.795c-.67-.328-1.22-.648-3.16-.302-4.935.876-4.635-.287-6.799-.694-3.885-.726-3.844 3.126-3.996 5.043a25.45 25.45 0 0 0 .388 4.121c.053.254.549.884 1.08 1.602.315.5.726.931 1.21 1.27.95.675 1.511.82 1.778 1.015 1.625 1.191 3.653-.373 6.784-2.341 2.153-1.35 3.621-2.285 4.258-4.062.734-2.067.211-4.797-1.543-5.652z"/><path fill="#FFAD00" d="M80.99 108.5c.368-.031.645-.313.619-.632-.026-.319-.345-.552-.713-.522-.368.03-.644.312-.618.631.026.319.345.553.712.523zm2.526-.998c.367-.03.644-.313.618-.631-.026-.319-.345-.553-.713-.523-.367.03-.644.313-.618.631.026.319.345.553.713.523zm-2.842 3.594c.367-.03.644-.312.618-.631-.026-.319-.345-.553-.712-.523-.368.03-.645.313-.619.632.026.318.345.552.713.522zm2.66-1.38c.368-.03.644-.312.618-.631-.025-.319-.345-.553-.712-.523-.368.03-.645.313-.619.632.026.318.346.552.713.522zm2.716-1.63c.368-.03.645-.312.62-.631-.027-.319-.346-.553-.713-.523-.368.03-.645.313-.619.632.026.318.345.552.713.522z"/><path stroke="#FF8500" stroke-linecap="round" stroke-linejoin="round" stroke-width=".762" d="m87.406 90.68 2.227 9.595"/><path stroke="#EF9900" stroke-linecap="round" stroke-linejoin="round" stroke-width=".762" d="m93.078 106.176.379 4.639"/><path stroke="#FF8500" stroke-linecap="round" stroke-linejoin="round" stroke-width=".762" d="m96.2 89.961-.64 9.83"/><path fill="#FFAD00" d="M106.312 107.717a.668.668 0 1 0 0-1.336.668.668 0 0 0 0 1.336zm-2.67-.691a.667.667 0 1 0 .002-1.334.667.667 0 0 0-.002 1.334zm3.434 3.586a.668.668 0 1 0 0-1.336.668.668 0 0 0 0 1.336zm-2.863-1.102a.667.667 0 1 0 0-1.334.667.667 0 0 0 0 1.334zm-2.963-1.379a.668.668 0 1 0 0-1.336.668.668 0 0 0 0 1.336z"/><path stroke="#772901" stroke-miterlimit="10" stroke-width="2.031" d="M144.19 102.416c-.525 1.066-6.073-1.93-8.259.228-1.6 1.577.254 4.258-.389 8.984a16.318 16.318 0 0 1-2.163 6.124c-.551.945-1.117 1.757-1.61 2.465-4.57 6.546-12.188 10.35-13.351 9.141-.797-.827 1.524-3.973.988-4.334-.597-.401-2.935 3.903-7.96 6.693-3.189 1.778-4.39 1.232-7.6 2.859-3.346 1.701-5.84 4.225-7.716 6.896-2.285-2.331-4.71-4.451-8.29-5.586-3.428-1.084-4.525-.353-7.963-1.587-5.41-1.939-8.417-5.804-8.938-5.311-.467.441 2.326 3.171 1.679 4.115-.945 1.374-9.09-1.142-14.661-6.855-1.635-1.678-3.956-4.063-5.119-7.871-1.394-4.571 0-7.509-1.838-8.803-2.511-1.778-7.496 2.082-8.189 1.114-.665-.922 4.256-4.04 6.795-9.943 2.267-5.281 2.255-11.934-.183-13.19-2.031-1.052-4.639 2.208-5.708 1.363-1.777-1.417 1.81-13.379 11.127-19.935 4.903-3.448 9.73-4.237 9.572-6.152-.206-2.521-8.732-3.116-8.663-4.664.058-1.293 6.068-2.344 12.101-2.555a71.672 71.672 0 0 1 21.93 2.684 75.247 75.247 0 0 1 4.459-1.925 67.926 67.926 0 0 1 16.304-4.242c5.987-.762 12.086-.709 12.352.558.32 1.524-7.993 3.486-7.787 6.008.155 1.914 5.048 1.91 10.438 4.517 10.258 4.956 15.755 16.176 14.219 17.862-.921 1.016-4.019-1.777-5.852-.418-2.204 1.642-1.138 8.2 1.96 13.045 3.456 5.401 8.823 7.686 8.315 8.715z"/><path fill="#091A2C" d="M88.201 103.627c.531-.455 1.222.238 2.61.315 2.476.137 3.34-1.897 5.9-1.631.535.056 1.373.143 1.634.678.508 1.029-1.353 3.207-3.39 4.203a5.979 5.979 0 0 1-3.539.624c-.566-.084-2.458-.36-3.215-1.843-.385-.739-.54-1.889 0-2.346zm-5.053-14.303a.716.716 0 0 1-.62.366c-.708.106-.845-.285-.918-.782-.074-.498-.061-.91.652-1.016.1-.012.2-.012.3 0 .363.287.493.795.576 1.374a.54.54 0 0 1 .01.058zm22.435-6.374c.173.227.209.491-.083.877-.429.576-.8.391-1.201.091-.402-.3-.683-.604-.254-1.18.049-.07.106-.132.17-.188.462-.135.906.079 1.368.4z"/><path stroke="#EF9900" stroke-linecap="round" stroke-linejoin="round" stroke-width=".762" d="M110.689 112.529a6.332 6.332 0 0 1-.927 1.386c-.602.719-1.574 1.318-2.214 1.686-3.301 1.894-6.069-.185-9.334-1.457-2.245-.874-3.809-1.524-4.687-3.012a.991.991 0 0 1-.048-.089c0 .031-.023.064-.036.097-.62 1.62-1.998 2.501-4.063 3.727-1.378.815-3.623 2.006-4.4 2.171-.848.178-1.03.254-2.255-.16-.827-.279-.926-.576-1.835-1.18a7.635 7.635 0 0 1-1.359-1.118"/><path fill="#FFAD00" d="M86.066 121.603c.99-1.648-.226-4.196-2.716-5.691-2.49-1.496-5.31-1.372-6.3.276-.99 1.649.226 4.197 2.716 5.692s5.31 1.372 6.3-.277z"/><path fill="#FFAD00" d="M81.827 149.846c2.6-1.503 4.078-10.524 2.892-13.558-2.91-7.46-.828-8.74-.69-15.41-.968-.734-2.105-1.288-3.347-1.217-5.647.318-11.68 20.821-7.11 28.002 2.367 3.714 4.995 4.067 8.255 2.183zm25.957-28.217c1.996-2.15 2.268-5.143.607-6.686-1.661-1.544-4.627-1.052-6.623 1.097-1.997 2.149-2.269 5.143-.608 6.686 1.662 1.544 4.627 1.052 6.624-1.097z"/><path fill="#FFAD00" d="M107.023 149.59c-2.758-1.27-4.959-10.776-4.063-13.942 2.214-7.783-.147-8.291-.919-14.981.901-.833 1.993-1.496 3.25-1.544 5.716-.216 13.752 19.843 9.821 27.486-2.018 3.961-4.628 4.568-8.089 2.981z"/><path fill="#8E3501" d="M103.943 77.913a.703.703 0 0 1-.14.376l-.576.55a9.904 9.904 0 0 0-1.93 2.54l-.467.884a.545.545 0 0 1-.392.237.54.54 0 0 1-.433-.151.227.227 0 0 1-.033-.358c.156-.203.294-.42.411-.647l.274-.562c.44-.903.979-1.754 1.605-2.539l.66-.82a.547.547 0 0 1 .391-.237.536.536 0 0 1 .432.15.699.699 0 0 1 .198.577zm-22.488 7.224-.117.02c-.7.117-1.49.394-1.861 1.05a4.541 4.541 0 0 1-.325.57.733.733 0 0 1-.546.325.556.556 0 0 1-.514-.722.626.626 0 0 1 .133-.245c.065-.063.126-.129.183-.198.068-.09.143-.175.224-.254.266-.268.565-.5.89-.693.294-.18.62-.302.96-.358a4.8 4.8 0 0 1 .681-.107.741.741 0 0 1 .561.107.287.287 0 0 1 .071.3.333.333 0 0 1-.193.177.6.6 0 0 1-.147.028zm69.765 6.701c0 .033.018.066.028.099.434 1.503.632 3.333-.473 4.438-.411.409-.952.658-1.414 1.016-1.536 1.17-.566 3.288.343 4.57a6.834 6.834 0 0 0 4.57 2.836c1.76.231 3.669-.317 4.837-1.653 1.572-1.797 1.491-4.527.793-6.812a15.97 15.97 0 0 0-7.928-9.44 1.014 1.014 0 0 0-.576-.155c-.307.043-.508.347-.62.637-.545 1.414.008 2.99.44 4.464z"/></g><defs><clipPath id="a"><path fill="#fff" d="M0 0h118.653v104.82H0z" transform="translate(41.732 50.605)"/></clipPath></defs></svg>